<svg xmlns="http://www.w3.org/2000/svg" width="300" height="300" style="width:100%;height:100%;background-color:#fff"><svg><svg width="300" height="300" fill="none" transform="matrix(.95 0 0 .95 9 9)"><g style="fill:#000"><path d="M5 135h10v10H5zM5 145h10v10H5zM5 155h10v10H5zM5 185h10v10H5zM15 95h10v10H15zM15 125h10v10H15zM15 145h10v10H15zM15 155h10v10H15zM15 175h10v10H15zM15 185h10v10H15zM15 205h10v10H15zM25 95h10v10H25zM25 105h10v10H25zM25 115h10v10H25zM25 125h10v10H25zM25 145h10v10H25zM25 155h10v10H25zM25 175h10v10H25zM25 185h10v10H25zM25 195h10v10H25zM25 205h10v10H25zM35 85h10v10H35zM35 95h10v10H35zM35 105h10v10H35zM35 145h10v10H35zM35 155h10v10H35zM35 175h10v10H35zM35 185h10v10H35zM45 95h10v10H45zM45 125h10v10H45zM45 145h10v10H45zM45 185h10v10H45zM45 205h10v10H45zM55 85h10v10H55zM55 95h10v10H55zM55 125h10v10H55zM55 135h10v10H55zM55 145h10v10H55zM55 175h10v10H55zM65 85h10v10H65zM65 105h10v10H65zM65 125h10v10H65zM65 145h10v10H65zM65 165h10v10H65zM65 185h10v10H65zM65 205h10v10H65zM75 85h10v10H75zM75 105h10v10H75zM75 115h10v10H75zM75 145h10v10H75zM75 165h10v10H75zM75 195h10v10H75zM85 15h10v10H85zM85 25h10v10H85zM85 65h10v10H85zM85 105h10v10H85zM85 145h10v10H85zM85 165h10v10H85zM85 195h10v10H85zM85 225h10v10H85zM85 235h10v10H85zM85 255h10v10H85zM95 5h10v10H95zM95 15h10v10H95zM95 35h10v10H95zM95 45h10v10H95zM95 55h10v10H95zM95 85h10v10H95zM95 105h10v10H95zM95 115h10v10H95zM95 155h10v10H95zM95 165h10v10H95zM95 175h10v10H95zM95 185h10v10H95zM95 195h10v10H95zM95 225h10v10H95zM95 235h10v10H95zM95 275h10v10H95zM95 285h10v10H95zM105 15h10v10h-10zM105 35h10v10h-10zM105 65h10v10h-10zM105 75h10v10h-10zM105 105h10v10h-10zM105 125h10v10h-10zM105 145h10v10h-10zM105 155h10v10h-10zM105 165h10v10h-10zM105 175h10v10h-10zM105 195h10v10h-10zM105 205h10v10h-10zM105 215h10v10h-10zM105 285h10v10h-10zM115 5h10v10h-10zM115 25h10v10h-10zM115 55h10v10h-10zM115 75h10v10h-10zM115 85h10v10h-10zM115 105h10v10h-10zM115 125h10v10h-10zM115 145h10v10h-10zM115 155h10v10h-10zM115 165h10v10h-10zM115 185h10v10h-10zM115 205h10v10h-10zM115 225h10v10h-10zM115 235h10v10h-10zM115 245h10v10h-10zM115 255h10v10h-10zM125 5h10v10h-10zM125 25h10v10h-10zM125 35h10v10h-10zM125 45h10v10h-10zM125 65h10v10h-10zM125 95h10v10h-10zM125 145h10v10h-10zM125 165h10v10h-10zM125 195h10v10h-10zM125 215h10v10h-10zM125 225h10v10h-10zM125 255h10v10h-10zM125 275h10v10h-10zM135 25h10v10h-10zM135 75h10v10h-10zM135 95h10v10h-10zM135 115h10v10h-10zM135 145h10v10h-10zM135 165h10v10h-10zM135 175h10v10h-10zM135 195h10v10h-10zM135 205h10v10h-10zM135 225h10v10h-10zM135 255h10v10h-10zM135 285h10v10h-10zM145 5h10v10h-10zM145 65h10v10h-10zM145 95h10v10h-10zM145 105h10v10h-10zM145 115h10v10h-10zM145 125h10v10h-10zM145 135h10v10h-10zM145 145h10v10h-10zM145 155h10v10h-10zM145 165h10v10h-10zM145 175h10v10h-10zM145 185h10v10h-10zM145 195h10v10h-10zM145 225h10v10h-10zM145 255h10v10h-10zM145 265h10v10h-10zM145 285h10v10h-10zM155 35h10v10h-10zM155 55h10v10h-10zM155 75h10v10h-10zM155 85h10v10h-10zM155 115h10v10h-10zM155 135h10v10h-10zM155 155h10v10h-10zM155 185h10v10h-10zM155 215h10v10h-10zM155 255h10v10h-10zM155 285h10v10h-10zM165 15h10v10h-10zM165 35h10v10h-10zM165 45h10v10h-10zM165 55h10v10h-10zM165 65h10v10h-10zM165 95h10v10h-10zM165 115h10v10h-10zM165 135h10v10h-10zM165 145h10v10h-10zM165 165h10v10h-10zM165 175h10v10h-10zM165 185h10v10h-10zM165 195h10v10h-10zM165 205h10v10h-10zM165 215h10v10h-10zM165 225h10v10h-10zM165 235h10v10h-10zM175 35h10v10h-10zM175 85h10v10h-10zM175 95h10v10h-10zM175 125h10v10h-10zM175 145h10v10h-10zM175 165h10v10h-10zM175 205h10v10h-10zM175 215h10v10h-10zM175 225h10v10h-10zM175 235h10v10h-10zM175 255h10v10h-10zM175 265h10v10h-10zM175 285h10v10h-10zM185 5h10v10h-10zM185 15h10v10h-10zM185 35h10v10h-10zM185 55h10v10h-10zM185 65h10v10h-10zM185 75h10v10h-10zM185 145h10v10h-10zM185 165h10v10h-10zM185 175h10v10h-10zM185 195h10v10h-10zM185 205h10v10h-10zM185 285h10v10h-10zM195 25h10v10h-10zM195 45h10v10h-10zM195 55h10v10h-10zM195 105h10v10h-10zM195 115h10v10h-10zM195 125h10v10h-10zM195 135h10v10h-10zM195 145h10v10h-10zM195 155h10v10h-10zM195 165h10v10h-10zM195 185h10v10h-10zM195 215h10v10h-10zM195 225h10v10h-10zM195 235h10v10h-10zM195 245h10v10h-10zM195 255h10v10h-10zM195 275h10v10h-10zM205 5h10v10h-10zM205 15h10v10h-10zM205 45h10v10h-10zM205 65h10v10h-10zM205 85h10v10h-10zM205 115h10v10h-10zM205 125h10v10h-10zM205 135h10v10h-10zM205 145h10v10h-10zM205 185h10v10h-10zM205 205h10v10h-10zM205 215h10v10h-10zM205 225h10v10h-10zM205 235h10v10h-10zM205 245h10v10h-10zM205 255h10v10h-10zM215 85h10v10h-10zM215 105h10v10h-10zM215 125h10v10h-10zM215 135h10v10h-10zM215 145h10v10h-10zM215 155h10v10h-10zM215 165h10v10h-10zM215 175h10v10h-10zM215 195h10v10h-10zM215 205h10v10h-10zM215 245h10v10h-10zM215 255h10v10h-10zM215 285h10v10h-10zM225 105h10v10h-10zM225 125h10v10h-10zM225 135h10v10h-10zM225 155h10v10h-10zM225 205h10v10h-10zM225 225h10v10h-10zM225 245h10v10h-10zM225 255h10v10h-10zM225 265h10v10h-10zM225 275h10v10h-10zM225 285h10v10h-10zM235 95h10v10h-10zM235 105h10v10h-10zM235 115h10v10h-10zM235 125h10v10h-10zM235 135h10v10h-10zM235 175h10v10h-10zM235 195h10v10h-10zM235 205h10v10h-10zM235 245h10v10h-10zM235 255h10v10h-10zM235 285h10v10h-10zM245 95h10v10h-10zM245 105h10v10h-10zM245 155h10v10h-10zM245 175h10v10h-10zM245 195h10v10h-10zM245 205h10v10h-10zM245 215h10v10h-10zM245 225h10v10h-10zM245 235h10v10h-10zM245 245h10v10h-10zM245 275h10v10h-10zM245 285h10v10h-10zM255 95h10v10h-10zM255 105h10v10h-10zM255 115h10v10h-10zM255 125h10v10h-10zM255 135h10v10h-10zM255 175h10v10h-10zM255 195h10v10h-10zM255 205h10v10h-10zM255 235h10v10h-10zM255 245h10v10h-10zM255 255h10v10h-10zM255 265h10v10h-10zM255 275h10v10h-10zM265 85h10v10h-10zM265 95h10v10h-10zM265 115h10v10h-10zM265 125h10v10h-10zM265 145h10v10h-10zM265 155h10v10h-10zM265 175h10v10h-10zM265 215h10v10h-10zM265 245h10v10h-10zM265 265h10v10h-10zM265 275h10v10h-10zM265 285h10v10h-10zM275 85h10v10h-10zM275 95h10v10h-10zM275 105h10v10h-10zM275 115h10v10h-10zM275 125h10v10h-10zM275 145h10v10h-10zM275 185h10v10h-10zM275 205h10v10h-10zM275 215h10v10h-10zM285 95h10v10h-10zM285 135h10v10h-10zM285 145h10v10h-10zM285 155h10v10h-10zM285 205h10v10h-10zM285 235h10v10h-10zM285 245h10v10h-10zM285 255h10v10h-10zM285 285h10v10h-10z"/></g><g style="fill:#000"><path d="M5 5h10v10H5zM5 15h10v10H5zM5 25h10v10H5zM5 35h10v10H5zM5 45h10v10H5zM5 55h10v10H5zM5 65h10v10H5zM15 5h10v10H15zM15 65h10v10H15zM25 5h10v10H25zM25 65h10v10H25zM35 5h10v10H35zM35 65h10v10H35zM45 5h10v10H45zM45 65h10v10H45zM55 5h10v10H55zM55 65h10v10H55zM65 5h10v10H65zM65 15h10v10H65zM65 25h10v10H65zM65 35h10v10H65zM65 45h10v10H65zM65 55h10v10H65zM65 65h10v10H65z"/></g><g style="fill:#000"><path d="M25 25h10v10H25zM25 35h10v10H25zM25 45h10v10H25zM35 25h10v10H35zM35 35h10v10H35zM35 45h10v10H35zM45 25h10v10H45zM45 35h10v10H45zM45 45h10v10H45z"/></g><g style="fill:#000"><path d="M225 5h10v10h-10zM225 15h10v10h-10zM225 25h10v10h-10zM225 35h10v10h-10zM225 45h10v10h-10zM225 55h10v10h-10zM225 65h10v10h-10zM235 5h10v10h-10zM235 65h10v10h-10zM245 5h10v10h-10zM245 65h10v10h-10zM255 5h10v10h-10zM255 65h10v10h-10zM265 5h10v10h-10zM265 65h10v10h-10zM275 5h10v10h-10zM275 65h10v10h-10zM285 5h10v10h-10zM285 15h10v10h-10zM285 25h10v10h-10zM285 35h10v10h-10zM285 45h10v10h-10zM285 55h10v10h-10zM285 65h10v10h-10z"/></g><g style="fill:#000"><path d="M245 25h10v10h-10zM245 35h10v10h-10zM245 45h10v10h-10zM255 25h10v10h-10zM255 35h10v10h-10zM255 45h10v10h-10zM265 25h10v10h-10zM265 35h10v10h-10zM265 45h10v10h-10z"/></g><g style="fill:#000"><path d="M5 225h10v10H5zM5 235h10v10H5zM5 245h10v10H5zM5 255h10v10H5zM5 265h10v10H5zM5 275h10v10H5zM5 285h10v10H5zM15 225h10v10H15zM15 285h10v10H15zM25 225h10v10H25zM25 285h10v10H25zM35 225h10v10H35zM35 285h10v10H35zM45 225h10v10H45zM45 285h10v10H45zM55 225h10v10H55zM55 285h10v10H55zM65 225h10v10H65zM65 235h10v10H65zM65 245h10v10H65zM65 255h10v10H65zM65 265h10v10H65zM65 275h10v10H65zM65 285h10v10H65z"/></g><g style="fill:#000"><path d="M25 245h10v10H25zM25 255h10v10H25zM25 265h10v10H25zM35 245h10v10H35zM35 255h10v10H35zM35 265h10v10H35zM45 245h10v10H45zM45 255h10v10H45zM45 265h10v10H45z"/></g></svg></svg></svg>